HIERARCHY
ROOT hip
{
  OFFSET 343.43 68.3257 -38.3303
  CHANNELS 6 Xposition Yposition Zposition Zrotation Xrotation Yrotation
  JOINT abdomen
  {
    OFFSET 0 20.6881 -0.73152
    CHANNELS 3 Zrotation Xrotation Yrotation
    JOINT chest
    {
      OFFSET 0 11.7043 -0.48768
      CHANNELS 3 Zrotation Xrotation Yrotation
      JOINT neck
      {
        OFFSET 0 22.1894 -2.19456
        CHANNELS 3 Zrotation Xrotation Yrotation
        JOINT head
        {
          OFFSET -0.24384 7.07133 1.2192
          CHANNELS 3 Zrotation Xrotation Yrotation
          JOINT leftEye
          {
            OFFSET 4.14528 8.04674 8.04672
            CHANNELS 3 Zrotation Xrotation Yrotation
            End Site
            {
              OFFSET 1 0 0
            }
          }
          JOINT rightEye
          {
            OFFSET -3.6576 8.04674 8.04672
            CHANNELS 3 Zrotation Xrotation Yrotation
            End Site
            {
              OFFSET 1 0 0
            }
          }
        }
      }
      JOINT rCollar
      {
        OFFSET -2.68224 19.2634 -4.8768
        CHANNELS 3 Zrotation Xrotation Yrotation
        JOINT rShldr
        {
          OFFSET -8.77824 -1.95073 1.46304
          CHANNELS 3 Zrotation Xrotation Yrotation
          JOINT rForeArm
          {
            OFFSET -28.1742 -1.7115 0.48768
            CHANNELS 3 Zrotation Xrotation Yrotation
            JOINT rHand
            {
              OFFSET -22.5879 0.773209 7.07136
              CHANNELS 3 Zrotation Xrotation Yrotation
              JOINT rThumb1
              {
                OFFSET -1.2192 -0.487915 3.41376
                CHANNELS 3 Zrotation Xrotation Yrotation
                JOINT rThumb2
                {
                  OFFSET -3.37035 -0.52449 3.41376
                  CHANNELS 3 Zrotation Xrotation Yrotation
                  End Site
                  {
                    OFFSET -1.78271 -1.18214 1.43049
                  }
                }
              }
              JOINT rIndex1
              {
                OFFSET -7.75947 0.938293 5.60832
                CHANNELS 3 Zrotation Xrotation Yrotation
                JOINT rIndex2
                {
                  OFFSET -2.54057 -0.884171 1.56538
                  CHANNELS 3 Zrotation Xrotation Yrotation
                  End Site
                  {
                    OFFSET -1.62519 -0.234802 1.16502
                  }
                }
              }
              JOINT rMid1
              {
                OFFSET -8.24714 1.18213 3.41376
                CHANNELS 3 Zrotation Xrotation Yrotation
                JOINT rMid2
                {
                  OFFSET -3.10165 -0.590103 1.0647
                  CHANNELS 3 Zrotation Xrotation Yrotation
                  End Site
                  {
                    OFFSET -2.48547 -0.328903 0.83742
                  }
                }
              }
              JOINT rRing1
              {
                OFFSET -8.82822 0.546677 1.51678
                CHANNELS 3 Zrotation Xrotation Yrotation
                JOINT rRing2
                {
                  OFFSET -2.60934 -0.819778 -0.0198488
                  CHANNELS 3 Zrotation Xrotation Yrotation
                  End Site
                  {
                    OFFSET -2.33842 -0.294052 0.168128
                  }
                }
              }
              JOINT rPinky1
              {
                OFFSET -8.27202 -0.0477905 -0.4584
                CHANNELS 3 Zrotation Xrotation Yrotation
                JOINT rPinky2
                {
                  OFFSET -1.82734 -0.647385 -0.700984
                  CHANNELS 3 Zrotation Xrotation Yrotation
                  End Site
                  {
                    OFFSET -1.69225 -0.51767 -0.607171
                  }
                }
              }
            }
          }
        }
      }
      JOINT lCollar
      {
        OFFSET 2.68224 19.2634 -4.8768
        CHANNELS 3 Zrotation Xrotation Yrotation
        JOINT lShldr
        {
          OFFSET 8.77824 -1.95073 1.46304
          CHANNELS 3 Zrotation Xrotation Yrotation
          JOINT lForeArm
          {
            OFFSET 28.1742 -1.7115 0.48768
            CHANNELS 3 Zrotation Xrotation Yrotation
            JOINT lHand
            {
              OFFSET 22.5879 0.773209 7.07136
              CHANNELS 3 Zrotation Xrotation Yrotation
              JOINT lThumb1
              {
                OFFSET 1.2192 -0.487915 3.41376
                CHANNELS 3 Zrotation Xrotation Yrotation
                JOINT lThumb2
                {
                  OFFSET 3.37035 -0.52449 3.41376
                  CHANNELS 3 Zrotation Xrotation Yrotation
                  End Site
                  {
                    OFFSET 1.78271 -1.18214 1.43049
                  }
                }
              }
              JOINT lIndex1
              {
                OFFSET 7.75947 0.938293 5.60832
                CHANNELS 3 Zrotation Xrotation Yrotation
                JOINT lIndex2
                {
                  OFFSET 2.54057 -0.884171 1.56538
                  CHANNELS 3 Zrotation Xrotation Yrotation
                  End Site
                  {
                    OFFSET 1.62519 -0.234802 1.16502
                  }
                }
              }
              JOINT lMid1
              {
                OFFSET 8.24714 1.18213 3.41376
                CHANNELS 3 Zrotation Xrotation Yrotation
                JOINT lMid2
                {
                  OFFSET 3.10165 -0.590103 1.0647
                  CHANNELS 3 Zrotation Xrotation Yrotation
                  End Site
                  {
                    OFFSET 2.48547 -0.328903 0.83742
                  }
                }
              }
              JOINT lRing1
              {
                OFFSET 8.82822 0.546677 1.51678
                CHANNELS 3 Zrotation Xrotation Yrotation
                JOINT lRing2
                {
                  OFFSET 2.60934 -0.819778 -0.0198488
                  CHANNELS 3 Zrotation Xrotation Yrotation
                  End Site
                  {
                    OFFSET 2.33842 -0.294052 0.168128
                  }
                }
              }
              JOINT lPinky1
              {
                OFFSET 8.27202 -0.0477905 -0.4584
                CHANNELS 3 Zrotation Xrotation Yrotation
                JOINT lPinky2
                {
                  OFFSET 1.82734 -0.647385 -0.700984
                  CHANNELS 3 Zrotation Xrotation Yrotation
                  End Site
                  {
                    OFFSET 1.69225 -0.51767 -0.607171
                  }
                }
              }
            }
          }
        }
      }
    }
  }
  JOINT rButtock
  {
    OFFSET -8.77824 4.35084 1.2192
    CHANNELS 3 Zrotation Xrotation Yrotation
    JOINT rThigh
    {
      OFFSET 0 -1.70687 -2.19456
      CHANNELS 3 Zrotation Xrotation Yrotation
      JOINT rShin
      {
        OFFSET 0 -36.8199 0.73152
        CHANNELS 3 Zrotation Xrotation Yrotation
        JOINT rFoot
        {
          OFFSET 0.73152 -45.1104 -5.12064
          CHANNELS 3 Zrotation Xrotation Yrotation
          End Site
          {
            OFFSET -1.1221 -3.69964 12.103
          }
        }
      }
    }
  }
  JOINT lButtock
  {
    OFFSET 8.77824 4.35084 1.2192
    CHANNELS 3 Zrotation Xrotation Yrotation
    JOINT lThigh
    {
      OFFSET 0 -1.70687 -2.19456
      CHANNELS 3 Zrotation Xrotation Yrotation
      JOINT lShin
      {
        OFFSET 0 -36.8199 0.73152
        CHANNELS 3 Zrotation Xrotation Yrotation
        JOINT lFoot
        {
          OFFSET -0.73152 -45.1104 -5.12064
          CHANNELS 3 Zrotation Xrotation Yrotation
          End Site
          {
            OFFSET 1.1221 -3.69964 12.103
          }
        }
      }
    }
  }
}
MOTION
Frames:	4
Frame Time:	0.00833333
-72.2899 73.3443 -24.0388 -13.5983 0.552627 96.9762 2.82118 45.3594 -5.87411 -3.75613 -7.98604 -0.514794 2.31444 16.6902 -1.81041 5.15075 -60.1978 0.326076 -0 0 0 -0 0 0 4.74431e-014 -9.19733e-013 -5.1243e-014 77.4675 32.3372 5.14112 -18.7576 -11.525 35.7427 -0.0066721 -2.33182 -0.327899 -6.40441e-010 -9.70975e-010 -1.27697e-010 -1.11421e-009 -1.67939e-009 -2.22433e-010 -6.40436e-010 -9.70977e-010 -1.27695e-010 7.73091 5.47488 0.417314 -6.40439e-010 -9.70978e-010 -1.27694e-010 2.90554 0.965183 0.102902 -6.40432e-010 -9.70975e-010 -1.27695e-010 10.2786 0.731801 0.0259123 -6.40442e-010 -9.70973e-010 -1.27688e-010 2.22167 -0.733487 -0.20892 4.72063e-014 -9.19713e-013 -5.14266e-014 -76.0341 25.316 -2.19288 16.8562 -9.50766 -31.5017 0.823617 -24.8656 3.73457 6.87623e-010 -1.12256e-009 1.11838e-009 1.18134e-009 -1.93286e-009 1.94376e-009 6.87617e-010 -1.12256e-009 1.11838e-009 -7.73091 5.47488 -0.417314 6.87623e-010 -1.12256e-009 1.11838e-009 -2.90554 0.965183 -0.102902 6.87613e-010 -1.12256e-009 1.11838e-009 -10.2786 0.731801 -0.0259123 6.87624e-010 -1.12256e-009 1.11838e-009 -2.22167 -0.733487 0.20892 -2.03217e-016 0 -3.88251e-019 -10.2872 -65.7945 -14.3321 -4.34665 78.2676 4.49342 0.871021 13.6037 -9.56805 2.03217e-016 0 3.88251e-019 23.9219 -66.0219 30.856 17.8028 86.7687 -18.3966 1.07987 10.2102 -3.27576 
-71.5939 73.3037 -24.0074 -13.4202 0.629831 96.9971 2.68023 45.5967 -5.80432 -3.75512 -8.00428 -0.4967 2.31358 16.737 -1.82682 5.18618 -60.293 0.322328 -0 0 0 -0 0 0 4.17196e-014 -6.58635e-013 -4.10863e-014 77.4484 32.3283 5.19097 -18.753 -11.5198 35.7321 -0.00691368 -2.37345 -0.33376 -5.41375e-010 -6.70541e-010 -1.49708e-010 -9.40665e-010 -1.15979e-009 -2.60181e-010 -5.41369e-010 -6.70545e-010 -1.49704e-010 7.73091 5.47488 0.417314 -5.41372e-010 -6.70545e-010 -1.49706e-010 2.90554 0.965183 0.102902 -5.41367e-010 -6.70544e-010 -1.49707e-010 10.2786 0.731801 0.0259123 -5.41377e-010 -6.70541e-010 -1.497e-010 2.22167 -0.733487 -0.20892 4.15738e-014 -6.58612e-013 -4.13379e-014 -76.1028 25.2765 -2.0781 16.829 -9.48078 -31.4429 0.822639 -24.852 3.73223 3.0033e-010 -7.82355e-010 8.85241e-010 5.12497e-010 -1.34922e-009 1.53468e-009 3.00323e-010 -7.82352e-010 8.85245e-010 -7.73091 5.47488 -0.417314 3.0033e-010 -7.82354e-010 8.85245e-010 -2.90554 0.965183 -0.102902 3.00317e-010 -7.82354e-010 8.85246e-010 -10.2786 0.731801 -0.0259123 3.0033e-010 -7.82356e-010 8.8524e-010 -2.22167 -0.733487 0.20892 -2.03217e-016 0 -3.88251e-019 -10.0942 -65.3559 -14.1555 -4.51288 78.6082 4.64891 0.883978 13.549 -9.67092 2.03217e-016 0 3.88251e-019 24.2806 -66.7262 31.8083 13.342 85.7746 -13.8877 1.01501 9.48749 -3.05822 
-70.9052 73.2579 -23.9798 -13.2494 0.710344 97.0133 2.53208 45.8196 -5.73255 -3.75074 -8.01764 -0.47854 2.31246 16.7804 -1.8413 5.23178 -60.381 0.32815 -0 0 0 -0 0 0 3.90279e-014 -3.93158e-013 -3.16937e-014 77.4316 32.3126 5.24193 -18.7457 -11.5115 35.7152 -0.00710511 -2.40566 -0.338294 -4.36921e-010 -3.60989e-010 -1.69199e-010 -7.57727e-010 -6.24431e-010 -2.93526e-010 -4.36914e-010 -3.60996e-010 -1.69194e-010 7.73091 5.47488 0.417314 -4.36918e-010 -3.60995e-010 -1.69199e-010 2.90554 0.965183 0.102902 -4.36915e-010 -3.60994e-010 -1.69199e-010 10.2786 0.731801 0.0259123 -4.36925e-010 -3.60992e-010 -1.69193e-010 2.22167 -0.733487 -0.20892 3.89726e-014 -3.93132e-013 -3.20117e-014 -76.1734 25.2349 -1.95902 16.7976 -9.44985 -31.3752 0.821173 -24.8315 3.72874 -8.92977e-011 -4.50718e-010 6.26808e-010 -1.59964e-010 -7.806e-010 1.08173e-009 -8.93053e-011 -4.50712e-010 6.26815e-010 -7.73091 5.47488 -0.417314 -8.92985e-011 -4.50716e-010 6.26812e-010 -2.90554 0.965183 -0.102902 -8.93123e-011 -4.50715e-010 6.26813e-010 -10.2786 0.731801 -0.0259123 -8.92984e-011 -4.50719e-010 6.2681e-010 -2.22167 -0.733487 0.20892 -2.03217e-016 0 -3.88251e-019 -9.94147 -64.9136 -14.0191 -4.68148 78.9323 4.80576 0.899092 13.5091 -9.76326 2.03217e-016 0 3.88251e-019 24.5956 -67.3742 32.7332 10.3407 84.6502 -10.8367 0.962513 8.87126 -2.86247 
-70.2285 73.2219 -23.9575 -13.1097 0.788022 97.0347 2.38986 46.0016 -5.66735 -3.74573 -8.02353 -0.462347 2.31401 16.8147 -1.85337 5.27573 -60.4517 0.336624 -0 0 0 -0 0 0 4.45325e-014 -2.76498e-013 -3.04638e-014 77.4261 32.2846 5.28454 -18.737 -11.5015 35.6951 -0.007131 -2.4104 -0.338961 -4.08739e-010 -2.05626e-010 -2.01927e-010 -7.07792e-010 -3.55697e-010 -3.50019e-010 -4.08732e-010 -2.05634e-010 -2.01921e-010 7.73091 5.47488 0.417314 -4.08737e-010 -2.05633e-010 -2.01927e-010 2.90554 0.965183 0.102902 -4.08734e-010 -2.05633e-010 -2.01927e-010 10.2786 0.731801 0.0259123 -4.08744e-010 -2.0563e-010 -2.01921e-010 2.22167 -0.733487 -0.20892 4.45258e-014 -2.76471e-013 -3.08116e-014 -76.2409 25.2011 -1.84268 16.7633 -9.41614 -31.301 0.818994 -24.8012 3.72356 -3.02242e-010 -3.24049e-010 5.11748e-010 -5.2748e-010 -5.64459e-010 8.79236e-010 -3.0225e-010 -3.24043e-010 5.11758e-010 -7.73091 5.47488 -0.417314 -3.02243e-010 -3.24047e-010 5.11751e-010 -2.90554 0.965183 -0.102902 -3.02257e-010 -3.24047e-010 5.11754e-010 -10.2786 0.731801 -0.0259123 -3.02243e-010 -3.2405e-010 5.11751e-010 -2.22167 -0.733487 0.20892 -2.03217e-016 0 -3.88251e-019 -9.85629 -64.4808 -13.9703 -4.84302 79.223 4.95429 0.920032 13.4854 -9.86935 2.03217e-016 0 3.88251e-019 24.863 -67.9804 33.6132 8.2123 83.3993 -8.65662 0.925641 8.40094 -2.72626 
